<?xml version="1.0" encoding="utf-8"?>
<!-- Generator: Adobe Illustrator 17.1.0, SVG Export Plug-In . SVG Version: 6.00 Build 0)  -->
<!DOCTYPE svg PUBLIC "-//W3C//DTD SVG 1.1//EN" "http://www.w3.org/Graphics/SVG/1.1/DTD/svg11.dtd">
<svg version="1.1" id="Layer_1" xmlns="http://www.w3.org/2000/svg" xmlns:xlink="http://www.w3.org/1999/xlink" x="0px" y="0px"
	 viewBox="0 0 1999 1867.471" enable-background="new 0 0 1999 1867.471" xml:space="preserve">
<g id="Oxx3oC.tif">
	<g>
		<path d="M1999,1446.471c-240.632,0.033-481.264,0.002-721.896,0.199c-23.574,0.019-43.797-8.718-62.73-21.377
			c-28.656-19.16-50.04-45.222-68.368-73.961c-29.962-46.982-49.771-98.366-64.847-151.709
			c-13.73-48.582-22.734-98.083-28.323-148.251c-5.042-45.26-7.098-90.644-6.756-136.158c0.008-1.13,0.172-2.26,0.333-4.258
			c10.594,1.698,20.926,3.106,31.158,5.042c25.221,4.773,49.652,12.271,73.541,21.649c2.576,1.011,5.856,0.975,8.668,0.533
			c69.241-10.882,131.852,4.689,187.506,47.287c25.454,19.483,45.654,43.677,61.26,71.687c0.559,1.003,1.156,1.984,1.606,2.754
			c91.691-27.644,177.019-16.006,252.289,43.997c75.168,59.921,105.982,140.065,98.221,235.667c7.812-1.393,15.731-3.129,23.74-4.18
			c56.574-7.42,108.074,5.505,154.081,39.318c24.662,18.126,44.048,40.984,58.578,67.941c0.538,0.997,1.288,1.88,1.94,2.816
			C1999,1445.804,1999,1446.138,1999,1446.471z"/>
		<path d="M0,1445.471c7.729-11.597,14.603-23.887,23.338-34.67c34.386-42.45,78.895-67.574,133.037-75.407
			c26.334-3.81,52.447-2.544,78.318,3.698c1.24,0.299,2.527,0.4,3.621,0.567c-7.715-95.867,23.197-176.136,98.633-236.057
			c75.208-59.74,160.403-71.295,250.701-44.048c9.782-13.589,18.632-27.786,29.336-40.411
			c38.689-45.634,87.941-72.79,147.157-81.772c25.249-3.83,50.412-3.439,75.58,0.868c3.067,0.525,6.693,0.094,9.592-1.065
			c31.823-12.728,64.754-21.063,98.707-25.487c0.486-0.063,0.987-0.008,1.624-0.008c0.188,0.678,0.523,1.303,0.509,1.92
			c-0.603,27.312-0.517,54.665-2.075,81.923c-1.48,25.9-3.812,51.82-7.284,77.526c-12.525,92.727-35.097,182.486-82.024,264.55
			c-17.732,31.01-39.19,59.151-67.712,81.253c-15.408,11.94-32.214,21.304-51.37,25.683c-5.781,1.322-11.847,1.953-17.783,1.955
			c-240.635,0.062-481.269,0.015-721.904-0.018C0,1446.138,0,1445.804,0,1445.471z"/>
		<path d="M1217,1867.471c-7.995-1.329-16.022-2.49-23.979-4.014c-74.789-14.324-129.045-71.09-140.083-146.348
			c-6-40.909-2.939-80.872,14.516-118.683c23.553-51.021,64.115-82.126,118.186-95.063c57.119-13.666,110.849-4.773,159.241,29.383
			c32.189,22.719,52.985,53.938,63.244,91.911c11.823,43.764,11.201,87.5-4.761,130.029
			c-21.898,58.344-65.267,92.836-125.021,107.617c-9.619,2.38-19.554,3.478-29.344,5.168
			C1238.333,1867.471,1227.667,1867.471,1217,1867.471z M1323.299,1682.384c-1.438-9.841-2.13-19.86-4.445-29.49
			c-8.898-37.028-39.304-62.943-77.08-66.381c-37.787-3.439-72.688,15.978-88.08,49.517c-11.496,25.049-12.725,51.249-5.556,77.519
			c9.232,33.831,31.121,55.955,65.619,63.326c34.015,7.267,63.779-1.907,86.875-28.559
			C1316.858,1729.591,1322.4,1706.858,1323.299,1682.384z"/>
		<path d="M0,1503.471c30.317,0,60.633,0,91.683,0c0,91.479,0,182.639,0,274.266c43.313,0,85.896,0,128.876,0
			c0,27.518,0,54.571,0,82.432c-1.967,0-4.058,0-6.15,0c-69.315,0-138.63-0.003-207.944,0.013c-2.155,0-4.31,0.189-6.465,0.29
			C0,1741.471,0,1622.471,0,1503.471z"/>
		<path d="M1525.975,713.741c-12.773-3.367-24.92-6.694-37.132-9.766c-44.2-11.117-88.84-20.124-133.95-26.567
			c-35.237-5.033-70.531-9.807-105.916-13.617c-33.095-3.563-66.314-6.133-99.532-8.349c-32.738-2.184-65.545-3.321-98.313-5.07
			c-4.319-0.23-5.819,0.861-6.401,5.505c-3.929,31.359-8.191,62.677-12.548,93.981c-1.896,13.624-2.114,13.594,10.49,18.739
			c38.315,15.64,76.63,31.279,114.943,46.922c1.521,0.621,3.025,1.285,4.818,2.048c-0.56,4.919-1.101,9.663-1.701,14.933
			c-10.945-1.906-21.529-3.735-32.107-5.594c-38.149-6.704-76.292-13.443-114.461-20.029c-1.508-0.26-3.494,0.562-4.862,1.473
			c-6.582,4.387-12.955,4.351-19.593,0.047c-1.57-1.018-3.969-1.573-5.799-1.257c-47.997,8.293-95.97,16.73-143.948,25.131
			c-0.316,0.055-0.658-0.04-1.664-0.115c-0.572-4.704-1.159-9.539-1.781-14.653c15.658-6.4,31.016-12.69,46.384-18.956
			c27.087-11.044,54.158-22.127,81.3-33.033c3.175-1.276,4.346-2.792,3.87-6.232c-3.232-23.399-6.316-46.818-9.447-70.231
			c-1.522-11.377-3.041-22.754-4.57-34.129c-0.174-1.295-0.411-2.581-0.788-4.92c-161.948,6.421-322.727,20.175-480.238,63.666
			c-2.067-7.825-4.256-15.447-5.928-23.181c-0.242-1.117,1.717-3.22,3.133-4.111c29.306-18.433,58.681-36.756,88.042-55.103
			c122.658-76.646,245.309-153.304,368.014-229.875c2.926-1.826,3.845-3.818,3.839-7.171c-0.101-57.328-0.833-114.669,0.148-171.981
			c0.92-53.709,6.958-106.972,23.032-158.514c4.516-14.482,11.157-28.44,18.158-41.948c3.389-6.539,9.253-12.232,15.089-16.96
			c7.921-6.417,17.982-6.445,25.876-0.005c5.944,4.848,11.347,10.87,15.475,17.337c11.947,18.718,18.136,39.841,23.475,61.176
			c8.464,33.821,13.686,68.212,15.42,102.982c1.526,30.595,1.801,61.264,2.065,91.905c0.329,38.16,0.191,76.327-0.06,114.488
			c-0.032,4.862,1.636,7.308,5.569,9.762c151.24,94.357,302.402,188.838,453.635,283.205c3.505,2.187,4.785,4.053,3.338,8.25
			C1529.192,700.178,1527.836,706.708,1525.975,713.741z"/>
		<path d="M1706.036,1503.872c0,27.057,0,53.829,0,81.137c-42.839,0-85.564,0-128.669,0c0,26.073,0,51.613,0,77.764
			c2.015,0,3.956,0,5.896,0c34.325,0,68.65,0.081,102.974-0.1c4.411-0.023,5.627,1.155,5.586,5.579
			c-0.219,23.659-0.103,47.321-0.103,70.982c0,1.479,0,2.958,0,4.953c-38.241,0-76.126,0-114.514,0c0,38.755,0,76.99,0,115.603
			c-31.059,0-61.616,0-92.594,0c0-118.583,0-237.087,0-355.917C1558.265,1503.872,1631.828,1503.872,1706.036,1503.872z"/>
		<path d="M1983.554,1662.849c0,27.413,0,54.169,0,81.476c-38.065,0-75.96,0-114.413,0c0,38.777,0,77.01,0,115.597
			c-2.165,0.098-3.787,0.236-5.41,0.237c-27.332,0.013-54.665-0.096-81.996,0.115c-4.474,0.034-5.547-1.261-5.543-5.62
			c0.117-115.162,0.093-230.324,0.093-345.486c0-1.634,0-3.269,0-5.26c74.172,0,147.874,0,221.807,0c0,27.104,0,53.988,0,81.279
			c-42.986,0-85.599,0-128.611,0c0,25.939,0,51.471,0,77.663C1907.529,1662.849,1945.418,1662.849,1983.554,1662.849z"/>
		<path d="M701.055,1662.596c0,27.658,0,54.438,0,81.684c-37.917,0-75.67,0-113.972,0c0,38.689,0,76.919,0,115.517
			c-31.122,0-61.695,0-92.645,0c0-118.599,0-237.131,0-355.956c73.689,0,147.269,0,221.199,0c0,26.941,0,53.845,0,81.336
			c-42.687,0-85.409,0-128.423,0c0,25.997,0,51.411,0,77.419C624.976,1662.596,662.696,1662.596,701.055,1662.596z"/>
		<path d="M838.575,1585.372c-29.368,0-58.002,0-87.078,0c0-27.197,0-54.087,0-81.402c87.779,0,175.791,0,264.103,0
			c0,26.968,0,53.855,0,81.215c-28.836,0-57.422,0-86.514,0c0,91.699,0,182.928,0,274.694c-2.25,0.112-4.021,0.277-5.792,0.278
			c-26.328,0.017-52.658-0.104-78.984,0.12c-4.637,0.04-5.836-1.279-5.83-5.845c0.128-87.317,0.095-174.633,0.094-261.95
			C838.575,1590.342,838.575,1588.202,838.575,1585.372z"/>
		<path d="M389.786,1779.903c14.977,0,29.725,0,44.754,0c0,26.86,0,53.115,0,79.818c-60.025,0-120.035,0-180.287,0
			c0-26.409,0-52.68,0-79.57c14.703,0,29.417,0,44.487,0c0-65.819,0-131.021,0-196.813c-13.605,0-27.162,0-41.053,0
			c0-26.807,0-53.026,0-79.518c57.685,0,115.098,0,172.928,0c0,26.29,0,52.627,0,79.414c-13.604,0-27.04,0-40.829,0
			C389.786,1648.885,389.786,1714.09,389.786,1779.903z"/>

	</g>
</g>
</svg>
