<?xml version="1.0" encoding="utf-8"?>
<!-- Generator: Adobe Illustrator 17.1.0, SVG Export Plug-In . SVG Version: 6.00 Build 0)  -->
<!DOCTYPE svg PUBLIC "-//W3C//DTD SVG 1.1//EN" "http://www.w3.org/Graphics/SVG/1.1/DTD/svg11.dtd">
<svg version="1.1" id="Layer_1" xmlns="http://www.w3.org/2000/svg" xmlns:xlink="http://www.w3.org/1999/xlink" x="0px" y="0px"
	 viewBox="0 0 1064.856 835.89" enable-background="new 0 0 1064.856 835.89" xml:space="preserve">
<path d="M1058.896,713.741c-12.773-3.367-24.92-6.694-37.132-9.766c-44.2-11.117-88.84-20.124-133.95-26.567
	c-35.237-5.033-70.531-9.807-105.916-13.617c-33.095-3.563-66.314-6.133-99.532-8.349c-32.738-2.184-65.545-3.321-98.313-5.07
	c-4.319-0.23-5.819,0.861-6.401,5.505c-3.929,31.359-8.191,62.677-12.548,93.981c-1.896,13.624-2.114,13.594,10.49,18.739
	c38.315,15.64,76.63,31.279,114.943,46.922c1.521,0.621,3.025,1.285,4.818,2.048c-0.56,4.919-1.101,9.663-1.701,14.933
	c-10.945-1.906-21.529-3.735-32.107-5.594c-38.149-6.704-76.292-13.443-114.461-20.029c-1.508-0.26-3.494,0.562-4.862,1.473
	c-6.582,4.387-12.955,4.351-19.593,0.047c-1.57-1.018-3.969-1.573-5.799-1.257c-47.997,8.293-95.97,16.73-143.948,25.131
	c-0.316,0.055-0.658-0.04-1.664-0.115c-0.572-4.704-1.159-9.539-1.781-14.653c15.658-6.4,31.016-12.69,46.384-18.956
	c27.087-11.044,54.158-22.127,81.3-33.033c3.175-1.276,4.346-2.792,3.87-6.232c-3.232-23.399-6.316-46.818-9.447-70.231
	c-1.522-11.377-3.041-22.754-4.57-34.129c-0.174-1.295-0.411-2.581-0.788-4.92c-161.948,6.421-322.727,20.175-480.238,63.666
	c-2.067-7.825-4.256-15.447-5.928-23.181c-0.242-1.117,1.717-3.22,3.133-4.111c29.306-18.433,58.681-36.756,88.042-55.103
	c122.658-76.646,245.309-153.304,368.014-229.875c2.926-1.826,3.845-3.818,3.839-7.171c-0.101-57.328-0.833-114.669,0.148-171.981
	c0.92-53.709,6.958-106.972,23.032-158.514c4.516-14.482,11.157-28.44,18.158-41.948c3.389-6.539,9.253-12.232,15.089-16.96
	c7.921-6.417,17.982-6.445,25.876-0.005c5.944,4.848,11.347,10.87,15.475,17.337c11.947,18.718,18.136,39.841,23.475,61.176
	c8.464,33.821,13.686,68.212,15.42,102.982c1.526,30.595,1.801,61.264,2.065,91.905c0.329,38.16,0.191,76.327-0.06,114.488
	c-0.032,4.862,1.636,7.308,5.569,9.762c151.24,94.357,302.402,188.838,453.635,283.205c3.505,2.187,4.785,4.053,3.338,8.25
	C1062.113,700.178,1060.757,706.708,1058.896,713.741z"/>
</svg>
